<?xml version="1.0" encoding="UTF-8"?>
<svg id="Layer_1" xmlns="http://www.w3.org/2000/svg" version="1.1" viewBox="0 0 1058 1058">
  <!-- Generator: Adobe Illustrator 29.0.1, SVG Export Plug-In . SVG Version: 2.1.0 Build 192)  -->
  <defs>
    <style>
      .st0 {
        fill: #eebc9c;
      }

      .st1 {
        fill: #020202;
      }

      .st2 {
        fill: #93d0ed;
      }

      .st3 {
        fill: #f6f0d4;
      }

      .st4 {
        fill: #fefefe;
      }

      .st5 {
        fill: #f5eed1;
      }
    </style>
  </defs>
  <path class="st4" d="M1058,0v1058H0V0h1058ZM270,1055c80.2.4,161.1,1.7,241.6,1.1l1.4-2.1h1c1,1.2,1.1,2.3,3.4,2.1,64.8.9,130.1-.9,194.6-1.1,59.3-.1,135.9,8.3,192.4-7.1,87.1-23.7,147.4-102.4,151.6-192.4V202.5c-6.1-111.8-90.7-195.1-202.5-200.5H202.5C92.8,7.5,7.9,91.8,2,201.5v656c5.9,98.3,76.3,179.3,173.7,195.4,31.8,5.2,62.7,2,94.3,2.2Z"/>
  <path class="st2" d="M712,1055l4.1-47.9,25.9-7.7-22.1-211.8c19.4-7.4,51.5-12.1,61.3-32.9,10.9-23.3,1.3-70.8-2.3-97.1-6.4-46.2-14.6-94.3-24.2-139.8-5.5-26.3-11-66.8-34.8-82.2s-55-29.6-80.9-46.1l-25.2-34.3c-1.3-.8-2.8.6-3.8.9s-1.4,0-2,0c.1-2.2-2.5-6.7-4-8.5s-3.8-2.2-4-2.5c-1.2-1.3-6.8-18.7-8-22,8.8-10.7,3.3-26.4,2-39,2.7-11.1,5.5-33.6-2-43-6.7-31.5-7.9-65.1-27.6-91.9-38.7-52.6-136.9-40-176.9,4.9-38.4,43,3.9,100.4,19.3,143.8,3,8.5,4.5,17.6,7.8,26.2,6.6,17.4,16.9,35,25.5,51.5.2,1.7,0,1.6-1.5,1.5-4.1-.3-8.8-1.8-13-2.1-25-1.3-51.8,10.8-63.7,33.4s-2.9,9.5-5.4,12.6-9.1,7.4-12.5,11.5c-8.8,10.9-10.3,27.9-6,41,.8,2.5,3.6,6.3,3.8,8.1s-1.6,5.3-1.7,7.9c-.9,16.1,1,27.5,13.5,38.5,7.8,6.8,8.8,7.6,15.5,15.5s13,9.9,22,12.5c-.6,5-1.2,10-2,15-1.2-.4-3.9-.1-5.4-.9-1.9.5-6.3,20-8.1,23.9-5.8,12.2-18.9,17.7-28.5,26.5-70.8,65.4-16,174.2,4.6,250.5.5,2,.8,4.5.4,6.5s-16.7,21-19.4,24.6c-32.4,44.4-54.7,98.3-62.6,152.9-31.7-.2-62.6,3.1-94.3-2.2-97.4-16.1-167.8-97.1-173.6-195.4V201.5C7.9,91.8,92.8,7.5,202.5,2h651.1c111.8,5.5,196.4,88.7,202.5,200.5v653.1c-4.2,90-64.5,168.7-151.6,192.4-56.6,15.4-133.1,7-192.4,7.1Z"/>
  <path class="st1" d="M592,241c-5.1-6.3-13.4-4.2-18,1.5-4.2,5.3-8,19.3-8,26,0,9.5,5.8,11.9-8.3,13.5-2.1-.3-8.1-34.5-11.1-40.1-4.8-8.9-19.3-13.5-27.3-19.2-1.2-5.2-1.9-26.4-5.9-28.6-8.3-4.8-33.1-2.3-42.4.3-14.1,4-21.3,12.8-32.7,18.3-11.4,5.6-24.7-1.7-36.2,1.8s-8,20.8-7,29.7,3.6,19.9,4.9,29.6c7.9-4.8,29.9-9.3,38.3-6.8s6.2,14.5,6.7,18.8c1.5,11.9.3,23.3,1,35s-.1,2.1,0,3,.5,2,1,3c4.6,8.5,17.3,3.3,18,4l-3,21c2.8-.6,5.9,1.3,8.4,1s8.1-3.7,8.6-4c7.7.2,15.4,0,23-1,1.2.2,4.2-.9,4,1-5.7,3.2-41.8,10.8-43.5,14-2.8,5.2,5,6.4,8.9,5.9s11.4-4.2,16.1-3.9,10.6,7.8,6.6,10.5-9.7,1-13.3,2.7c-11.5,5.2-9.9,22,2.9,23.7s32.2-4.3,43.4-14.9c4.5-3.1,8.1-7.3,12-11s.7-.7,1-1l1-1c9.5-9.3,17.9-18.3,26-29-2.6,15.7-12.3,29.9-16,45-2.2,2.2-2.2,5.5-3,8-2.8,1.5-2.6,4.6-4.5,7-4.1,5.5-18.9,15.2-21.1,20s1.8,5.3,2.5,8c2.8,10.2,0,21.3,0,31.5-.1,11.3-1.3,28.5,0,39.1s.5,2.9,2,1.5,4.6-11.5,5.7-13.7c23.4-44.3,47.9-87.6,73.3-129.5.8-1.3,4-3.7,4-5.7,1.1-.3,2.5-1.6,3.8-.9l25.2,34.3c25.9,16.5,55.2,29.5,80.9,46.1s29.2,56,34.8,82.2c9.6,45.6,17.8,93.7,24.2,139.8s13.2,73.7,2.3,97.1c-9.7,20.8-41.8,25.5-61.3,32.9l22.1,211.8-25.9,7.7-4.1,47.9c-64.5.1-129.8,1.9-194.6,1.1-2.3.3-2.4-.9-3.4-2.1s-.6-.7-1-1c0-.3,0-.7,0-1,1.1-5.3-.2-3.7-.7-6.7s2-4.4-1.3-5.3c0-.3,0-.7,0-1-1.1-20.7-4.9-42.5-8.2-63.3-.4-2.6-.2-7.3-2.8-8.7,0-.3,0-.7,0-1,0-4.6-.5-6.4-1-11-1.1-10.6-1.5-18.9-5-29-.8-3.5.8-10.3-2-12,0-.3,0-.7,0-1,0-2.1,2.6-4.8-1-6,0-.3,0-.7,0-1,0-9.2-4.6-27.7-3.8-33.3s7.8-17.6,9.9-23.2,7.7-20,8.9-26.6,0-.7,0-1c2.7-3.1,5.7-10,6-14,2.8-.6,11.9.1,11.9-3.4l-13-80c.5-1.7,21.4-4,24.4-5.8s1.2-3,1.6-3.8c10.2-18.2,8.9-38.6,13.5-58,2.9-12.3,9.4-25.1,12.5-37.6.2-5-3.8-6-4.9-8.2-2.4-4.5-.3-8.7-5-15.7s-3.7-5.4-4.5-6.4c-2.3-2.9-6.8-4.5-10.5-3.6-11.2,2.7-23.4,14.9-29.8,24.2s-17.7,36.9-17.2,48.8,6.5,32.9,5,45.5-4.1,13.3-5.5,14c-.9-2-2.7-3.4-3.7-5.3s-1.4-7.7-4.8-7.7c-7-16.1-15.9-29.7-24-45s-.1-2.4-.8-3.7c-1.1-2.2-4-5.5-4-7.6,0-3.6,5.3-20.8,6.7-25.7s4.6-11.7,5-18c25,6.9,30.8-2.6,39.5-23s15.5-40.4,16.5-52.5-4.2-24.8-2-36.5l-24,8c0-1.4-.3-3,.2-4.3.9-2.4,20-9.1,23.8-9.7,1.1-1.5-8-33.4-9.5-35-3.1-3.2-6.7-1-9.9-1-21.1,0-47.1-2.3-65.1-14.4-1.9-1.3-11.6-11-13.4-9.6,2,2.2,3.6,4.8,5.5,7s11.6,10.5,10.5,12c-15.7,5.2-27,22-32.8,36.7s-7.4,26.9-9.3,28.2c-4,2.8-12.4-16.5-22.3-10.8s.7,30,6.9,36.9,11.6,8.3,12,9c1.9,3.1-.2,7.6-.5,10-9-2.6-15.8-5.3-22-12.5s-7.7-8.7-15.5-15.5c-12.5-10.9-14.4-22.3-13.5-38.5s1.9-5.8,1.7-7.9-3-5.6-3.8-8.1c-4.2-13.2-2.8-30.2,6-41,3.4-4.2,9.7-8.1,12.5-11.5s3.4-9,5.4-12.6c11.9-22.6,38.7-34.7,63.7-33.4,4.2.2,8.9,1.8,13,2.1s1.7.1,1.5-1.5c-8.6-16.5-18.9-34.1-25.5-51.5s-4.7-17.7-7.8-26.2c-15.4-43.3-57.6-100.7-19.3-143.8,40-44.9,138.2-57.5,176.9-4.9,19.7,26.8,20.8,60.4,27.6,91.9Z"/>
  <path class="st5" d="M389,571c18.6,6.5,42,23.3,56,37,.4,3.4-.7,8.2.2,11.3s2.5,2.3,3.2,3.8.8,4.9,1.8,5.7,4.4.4,4.8,1.9c1.8,7.1-6,14.5-4.1,20.8s2.2.2,2.8.7c2,1.8,1.2,15.6-4.7,13.8-.6,2.2,2.3,2.8,2.8,4.7s.4,6,.2,6.3c-1.4,1.7-2.3-1.9-3.2-2.3-6.4-2.8-4.1,3.3-4.8,6.6s-1.4.6-1.9,1.5,0,3-1.5,4.3c-3,2.6-9.2-.5-12.6.9-2.7-1.2-8.1-4-11-4.6s-5.3,0-6,4.2c-2.5,15.9,19.5,23.5,28.9,32.4-5.5.9-11.1,2.1-16.6,2.9-17.4,2.3-36.4,2.4-53.6,5.4-6.6,1.1-13.4,2.4-12.6,10.9s2.8,5.9,2.9,8.3-2.5,4.4-1.9,8.7,5.5,8.5,6.6,11.5c2.1,6.2.3,11,6.2,16.8s7.6,4.2,7.9,4.6c.7,1.2-.3,6.7,1.4,10.1s6.7,6.1,6.8,6.7-2.2,2.4,1.7,3.8,19.4,2.5,23.2,1.7,5.8-1.3,5-3.5c1,0,2,0,3,0-.9,3.2,5.1,3,4,0,1,0,2,0,3,0-.8,3.2,3.9,3,3,0,1,0,2,0,3,0,5.6,7,8.5,2.7,14.5,2,11.7-1.5,23.1.1,35-2s1.2-3.9,1.5-7c.6-.1,1.4.1,2,0s2.7.2,3,0-.2-1.6,0-2,.8,0,1,0,1,1.8,1.9.9,0-1.7,0-1.9c1-1.1,10.8-3,13-4-.7,4.5,1.5,2.3,2.9,3.6,3.4,3.1,4.5,5.9,4.1,10.4-1.3.3-2.6.6-3.9,1.1,1,4-1.6,6.7-2.1,9.5s.1,2.6,0,3.4,0,.7,0,1c-3.8,6.6-5.4-1.1-9.3,0s-3.9,4.9-4.2,5.9c-1.6,5.3,4.9,10.3,4.1,16.1s-7.9,20.6-10.3,25.7-2.2,1.3-2.3,1.8c-.7,2.9,1.6,2.1,2,3.2,1.5,4.7,2.3,16.3,3,21.9s-2.3,5.4,2.1,8.4c0,.3,0,.7,0,1,0,1.8-.6,5,1,6,0,.3,0,.7,0,1,0,6,.1,6.6,2,12,3.5,10.1,3.9,18.4,5,29-2,2.4-.2,8.2,1,11,0,.3,0,.7,0,1,1.1,20.1,5.6,47.2,9.1,67.4s.4,3.4,1.9,4.6c0,.3,0,.7,0,1,.1,4-.5,8.5,2,12,0,.3,0,.7,0,1v1l-1.4,2.1c-80.5.7-161.3-.7-241.6-1.1,7.9-54.6,30.2-108.5,62.6-152.9s19.1-23,19.4-24.6,0-4.5-.4-6.5c-20.6-76.2-75.4-185.1-4.6-250.5,9.6-8.8,22.7-14.3,28.5-26.5s6.2-23.4,8.1-23.9c1.5.8,4.3.5,5.4.9ZM506,807c-2.6-2.5-8.8,7.6,0,7-1.3-1.5.2-6.7,0-7Z"/>
  <path class="st3" d="M514,1054h-1v-1c.4.3.7.6,1,1Z"/>
  <path class="st0" d="M445,286c-.5-4.4-2.1-17.4-6.7-18.8-8.4-2.5-30.4,2-38.3,6.8-1.3-9.8-3.8-19.9-4.9-29.6s-4.2-26.3,7-29.7,24.8,3.7,36.2-1.8c11.4-5.6,18.5-14.3,32.7-18.3s34-5.1,42.4-.3,4.7,23.4,5.9,28.6c8,5.7,22.5,10.3,27.3,19.2s9,39.8,11.1,40.1c14.2-1.6,8.3-4,8.3-13.5s3.8-20.7,8-26c4.6-5.8,12.9-7.8,18-1.5,7.5,9.4,4.7,31.9,2,43s-2.6,7.7-3.8,10.7-4.8,7.6-5,9,5.8,16.5,6.8,19.3,6.8,20.7,8,22c-5.5,8.4-13.7,14.7-20.5,22s-18,21.2-29,30c-2-1.9,1.1-4.5,1.3-5.7s-.8-1.2-.8-1.3c3.7-15.1,13.4-29.3,16-45-8.1,10.7-16.5,19.7-26,29s-.7.7-1,1-.7.7-1,1c-4.8,2.6-8.1,7.3-12,11-11.2,10.6-27.5,17.1-43.4,14.9s-14.3-18.5-2.9-23.7c3.7-1.7,12.5-2.1,13.3-2.7,4-2.8-2.5-10.2-6.6-10.5s-11.6,3.4-16.1,3.9-11.7-.7-8.9-5.9,37.8-10.8,43.5-14c.2-1.9-2.8-.8-4-1-5.9-1-15.5-1.9-21.6-1.1-2.3.3-1.2,1.9-1.4,2.1-.5.3-8.1,3.9-8.6,4-2.6.3-5.6-1.6-8.4-1l3-21c-.7-.7-13.4,4.5-18-4l1-4-2,1c-.1-.9,0-2,0-3,1.7-1,1-3.8,1-5.5.1-8.6.3-17.4,0-26.1s1-4-2-3.5ZM520,254c.3-.3,0-3.1-.5-4-1.8-3-17.1-6.2-21-6-7.5.4-34.2,11.6-41.3,15.8s2.9,7.4,5.2,8.2c16.3-4.1,29.7-15.3,47.1-15,2,0,9.5,2,10.5,1ZM489,315c.9,4,5,5.4,7.5,8,4.9,4.9,9.9,9.8,14.5,15s4.6,5.6,7.5,10-.3,2.6,2.5,2c-.5-13.4-13.4-25.5-23.7-32.8-1.3-.9-9.4-7.3-8.3-2.2Z"/>
  <path class="st0" d="M391,556c.3-2.5,2.4-6.9.5-10s-9.3-5.9-12-9c-6.2-6.9-17.3-31-6.9-36.9s18.4,13.6,22.3,10.8,7.6-24.1,9.3-28.2c5.8-14.8,17.1-31.5,32.8-36.7,1.1-1.5-8.9-10.2-10.5-12s-3.5-4.8-5.5-7c1.8-1.4,11.5,8.3,13.4,9.6,18,12.2,44.1,14.4,65.1,14.4,3.2,0,6.9-2.2,9.9,1s10.6,33.5,9.5,35c-3.8.6-23,7.2-23.8,9.7s-.1,3-.2,4.3l24-8c-2.2,11.7,2.9,25.6,2,36.5s-11.4,40.4-16.5,52.5c-8.6,20.4-14.4,29.9-39.5,23-.4,6.3-3.3,12-5,18l-15-15c-14-13.7-37.4-30.5-56-37,.8-5,1.4-10,2-15ZM423,498c15.7-4.6,30.3,1.5,45.6,5,3.2,0,3.6-6.3.7-7.8s-22-5-25.8-5.2c-7.8-.5-12.3,1-18.7,5.4s-2.5,0-1.9,2.6ZM501,569c1.6-1.7-6.5-5.6-7.8-5.8-3.2-.6-4.1,1.9-5.7,1.9s-2.5-2.1-4.9-2c-3.6,0-18.4,7-21.6,10,13.4-.2,27-.5,40-4Z"/>
  <path class="st3" d="M608,356l-76.1,135.9c-4.1.8-2.2-.8-3.3-2.5s-1.5-.2-1.7-1.8c-2.4-18.3,3.9-35.2-.9-54.6s-2-6.1-1.6-7l21.6-22.5c2-1.5,1.5-3.9,2-5.5.8-2.5.8-5.8,3-8,0,0,.9.5.8,1.3-.2,1.2-3.2,3.9-1.3,5.7,11-8.8,19.5-19.8,29-30s15-13.6,20.5-22c.2.3,2.5.6,4,2.5s4.1,6.3,4,8.5Z"/>
  <path class="st1" d="M592,323c-1-2.8-6.9-18.2-6.8-19.3s4-6.6,5-9,3.1-7.8,3.8-10.7c1.3,12.6,6.8,28.3-2,39Z"/>
  <path class="st5" d="M610,356c0,2.1-3.2,4.4-4,5.7-25.4,41.9-49.9,85.2-73.3,129.5-1.2,2.2-4.8,12.8-5.7,13.7-1.4,1.4-1.8,0-2-1.5-1.3-10.6-.2-27.7,0-39.1.1-10.1,2.8-21.3,0-31.5h1c4.8,19.3-1.5,36.2.9,54.6.2,1.7,1.4,1.3,1.7,1.8,1.1,1.7-.8,3.4,3.3,2.5l76.1-135.9c.6,0,1.4.1,2,0Z"/>
  <path class="st0" d="M496,704c1.5-12.6-4.4-32.1-5-45.5s10.2-38.8,17.2-48.8,18.7-21.5,29.8-24.2,8.1.6,10.5,3.6,3.7,5.2,4.5,6.4c4.7,7.1,2.7,11.2,5,15.7s5.1,3.2,4.9,8.2c-3.1,12.4-9.6,25.3-12.5,37.6-4.5,19.4-3.3,39.8-13.5,58l-41-11Z"/>
  <path class="st3" d="M445,608l15,15c-1.4,4.9-6.7,22-6.7,25.7s2.9,5.4,4,7.6.5,3.2.8,3.7h-2s0,3,0,3h2s0-3,0-3c8.1,15.3,17,28.9,24,45,3.4,0,3.4,5.1,4.8,7.7s2.8,3.3,3.7,5.3c1.4-.7,5.3-11.9,5.5-14l41,11c-.4.8.8,2.4-1.6,3.8s-23.9,4.1-24.4,5.8l13,80c0,3.5-9.2,2.8-11.9,3.4-.3,4-3.3,10.9-6,14,.2-.8-.2-2.2,0-3.4.5-2.7,3.1-5.5,2.1-9.5,1.2-.6,2.6-.8,3.9-1.1.4-4.5-.7-7.4-4.1-10.4s-3.6.9-2.9-3.6,1.1-3.8,1-7.5c-.7-17-6.1-36.5-7.2-53.8-.9-2.2-5.2-3-7.3-4.7s-5.1-5.9-7.5-8c.8-2,4.4-1,4-3.5s-4.8-8.8-6-11.5c-4.1,0-6.3,3.3-7,7-4-3.2-15.7-11.1-20-13,2.3-2.4,7.1-1.4,9-2.5,3.3-2-.9-2.7-1-3.1-1.3-4.3,4.8-5.5,8-6.4.8-1-5.2-10.3-6.5-10s-2.4,4.9-3.9,6.1-3.4.7-4.6,1.4-4.2,12.1-3,14.5c-8.2-3.7-16.7-7.3-25-11,3.4-1.4,9.6,1.7,12.6-.9s.9-3.1,1.5-4.3,1.7-.9,1.9-1.5c.7-3.3-1.6-9.4,4.8-6.6s1.8,4,3.2,2.3-.1-6-.2-6.3c-.5-1.9-3.4-2.5-2.8-4.7,6,1.8,6.7-12.1,4.7-13.8s-2.5.3-2.8-.7c-1.9-6.3,5.9-13.6,4.1-20.8s-3.8-1-4.8-1.9-1-4.1-1.8-5.7-2.7-2.2-3.2-3.8c-.9-3.1.2-7.9-.2-11.3ZM458,624c-1.1-1.1-3.1.9-2,2s3.1-.9,2-2Z"/>
  <path class="st3" d="M491,906c-4.4-3-1.8-5.5-2.1-8.4-.7-5.6-1.5-17.2-3-21.9s-2.6-.3-2-3.2,1.7-.4,2.3-1.8c2.4-5.1,9.7-21.1,10.3-25.7s-5.7-10.8-4.1-16.1,3.4-5.6,4.2-5.9c4-1.2,5.5,6.5,9.3,0-1.2,6.5-6.4,19.6-8.9,26.6s-9.2,18.6-9.9,23.2,3.9,24.1,3.8,33.3Z"/>
  <path class="st3" d="M511,1039c-1.4-1.2-1.6-2.9-1.9-4.6-3.6-20.2-8.1-47.2-9.1-67.4,2.6,1.3,2.4,6,2.8,8.7,3.2,20.8,7.1,42.6,8.2,63.3Z"/>
  <path class="st4" d="M526,433h-1c-.7-2.7-3.9-5-2.5-8,2.2-4.8,16.9-14.5,21.1-20s1.7-5.6,4.5-7c-.5,1.7,0,4-2,5.5l-21.6,22.5c-.4.9,1.1,5.3,1.6,7Z"/>
  <path class="st5" d="M445,286c3-.6,1.9,1.5,2,3.5.3,8.6.1,17.4,0,26.1s.6,4.4-1,5.5c-.7-11.7.5-23.1-1-35Z"/>
  <path class="st5" d="M502,348c-7.6,1.1-15.3,1.2-23,1,.2-.1-.9-1.8,1.4-2.1,6.1-.8,15.7,0,21.6,1.1Z"/>
  <path class="st3" d="M513,1052c-2.5-3.5-1.9-8-2-12,3.3,1,1,3.5,1.3,5.3.5,3,1.8,1.4.7,6.7Z"/>
  <path class="st3" d="M494,926c-1.9-5.4-2-6-2-12,2.8,1.7,1.2,8.5,2,12Z"/>
  <path class="st3" d="M492,913c-1.6-1-1.1-4.2-1-6,3.6,1.2,1.1,3.9,1,6Z"/>
  <path class="st3" d="M500,966c-1.2-2.8-3-8.6-1-11,.5,4.6.9,6.4,1,11Z"/>
  <path class="st5" d="M447,327c-.5-1-.8-1.9-1-3l2-1-1,4Z"/>
  <path class="st5" d="M527,387c3.9-3.7,7.2-8.4,12-11-3.9,3.7-7.5,7.9-12,11Z"/>
  <path class="st5" d="M540,375c.3-.3.7-.7,1-1l-1,1Z"/>
  <path class="st0" d="M387,806c-.1-.7-5.5-4.2-6.8-6.7s-.7-9-1.4-10.1-6-2.8-7.9-4.6c-5.9-5.8-4.1-10.7-6.2-16.8s-5.8-5.8-6.6-11.5,1.9-5.7,1.9-8.7-2.6-5.2-2.9-8.3c-.8-8.5,6-9.8,12.6-10.9,17.2-3,36.2-3.1,53.6-5.4s11.1-1.9,16.6-2.9c-9.4-8.9-31.4-16.5-28.9-32.4s2.1-4.9,6-4.2,8.3,3.4,11,4.6c8.3,3.7,16.8,7.3,25,11s1.5-.2,2,0c4.3,1.9,16,9.8,20,13s6.3,5.6,9,8,4.7,5.8,7.5,8,6.3,2.5,7.3,4.7c1.1,17.3,6.5,36.8,7.2,53.8s-.6,4.8-1,7.5c-2.2,1-12,2.9-13,4l-2,1c-.2,0-1,0-1,0-1.5,0-2.6.6-3,2-.6.1-1.4-.1-2,0-19.2,4.6-31.2,6.3-51,7s-2,0-3,0-2,0-3,0-2,0-3,0-2.7,0-4,0-2,0-3,0c-10.4,0-19.8.3-30-2Z"/>
  <path class="st3" d="M433,808c19.8-.7,31.8-2.4,51-7-.4,3.1,2.7,6.2-1.5,7-11.9,2.1-23.3.5-35,2-5.9.7-8.9,5-14.5-2Z"/>
  <path class="st3" d="M417,808c.8,2.2-3.9,3.3-5,3.5-3.8.8-19.6-.5-23.2-1.7s-1.7-3.5-1.7-3.8c10.2,2.3,19.6,2,30,2Z"/>
  <path class="st3" d="M506,807c.3.2-1.3,5.5,0,7-8.8.6-2.6-9.5,0-7Z"/>
  <path class="st3" d="M424,808c1.1,3-4.9,3.2-4,0,1.3,0,2.7,0,4,0Z"/>
  <path class="st3" d="M430,808c.9,3-3.8,3.2-3,0,1,0,2,0,3,0Z"/>
  <path class="st3" d="M489,799c-.2.4.2,1.8,0,2s-2.2-.1-3,0c.4-1.4,1.5-2.1,3-2Z"/>
  <path class="st3" d="M492,798c-.2.2.3,1.5,0,1.9-.9.9-1.8-.9-1.9-.9l2-1Z"/>
  <path class="st1" d="M520,254c-.9.9-8.5-1-10.5-1-17.4-.3-30.8,10.9-47.1,15-2.3-.8-8.9-6-5.2-8.2,7.1-4.2,33.8-15.3,41.3-15.8,3.8-.2,19.2,3,21,6s.8,3.7.5,4Z"/>
  <path class="st1" d="M489,315c-1.1-5.1,7.1,1.3,8.3,2.2,10.3,7.3,23.2,19.4,23.7,32.8-2.7.6-1.7-.8-2.5-2-2.9-4.4-4.2-6.1-7.5-10-5.8-8.9-14.6-15.5-22-23Z"/>
  <path class="st5" d="M511,338c-4.5-5.2-9.6-10.1-14.5-15-2.5-2.5-6.6-3.9-7.5-8,7.4,7.5,16.2,14.1,22,23Z"/>
  <path class="st1" d="M423,498c-.6-2.6.7-1.7,1.9-2.6,6.3-4.5,10.8-5.9,18.7-5.4,3.8.2,23.1,3.8,25.8,5.2s2.5,7.7-.7,7.8c-15.3-3.5-29.8-9.6-45.6-5Z"/>
  <path class="st1" d="M501,569c-13,3.5-26.6,3.8-40,4,3.3-3,18-9.9,21.6-10s3.5,2,4.9,2,2.5-2.5,5.7-1.9,9.4,4.1,7.8,5.8Z"/>
  <path class="st5" d="M482,705c1.2,2.7,5.9,10.5,6,11.5.4,2.5-3.3,1.5-4,3.5-2.7-2.4-6.5-6.1-9-8,.7-3.7,2.9-7,7-7Z"/>
  <path class="st5" d="M453,699c-1.2-2.4,1.9-13.7,3-14.5s3.1-.4,4.6-1.4,2.6-5.7,3.9-6.1,7.2,9,6.5,10c-3.3.8-9.3,2.1-8,6.4s4.3,1.2,1,3.1-6.7,0-9,2.5c-.5-.2-1.5.2-2,0Z"/>
  <rect class="st5" x="455.5" y="660.5" width="3" height="2" transform="translate(-205.3 1117.3) rotate(-89.9)"/>
  <path class="st5" d="M458,624c1.1,1.1-.9,3.1-2,2s.9-3.1,2-2Z"/>
</svg>